<svg width="40" height="40" viewBox="0 0 40 40" fill="none" xmlns="http://www.w3.org/2000/svg">
<rect width="40" height="40" rx="10" fill="#FF6633"/>
<path d="M18.499 31.9684C19.8361 31.9684 20.92 30.8845 20.92 29.5474C20.92 28.2104 19.8361 27.1266 18.499 27.1266C17.162 27.1266 16.0781 28.2104 16.0781 29.5474C16.0781 30.8845 17.162 31.9684 18.499 31.9684Z" fill="white"/>
<path d="M27.6699 32.0001C29.007 32.0001 30.0909 30.9161 30.0909 29.5791C30.0909 28.242 29.007 27.1582 27.6699 27.1582C26.3329 27.1582 25.249 28.242 25.249 29.5791C25.249 30.9161 26.3329 32.0001 27.6699 32.0001Z" fill="white"/>
<path d="M14.3637 12.8711L12.3374 7H8.32089C7.59123 7 7 7.59123 7 8.32088C7 9.05054 7.59123 9.64177 8.32089 9.64177H10.4549L12.3966 15.2677H10.6879C10.1041 15.2677 9.63121 15.7411 9.63121 16.3244C9.63121 16.9077 10.1041 17.3811 10.6879 17.3811H10.7455H13.1263H16.8216C17.4049 17.3811 17.8783 17.8545 17.8783 18.4378C17.8783 19.0211 17.4049 19.4945 16.8216 19.4945H13.8554H12.0738C11.4905 19.4945 11.0171 19.9679 11.0171 20.5512C11.0171 21.124 11.4741 21.5878 12.0426 21.6047H16.821C17.4044 21.6047 17.8778 22.0781 17.8778 22.6615C17.8778 23.2453 17.4044 23.7181 16.821 23.7181H15.3131L16.1225 26.063H28.224C29.4097 26.063 30.5207 25.1949 30.8072 24.0446L33.5916 12.8716L14.3637 12.8711Z" fill="white"/>
</svg>
