<svg width="146" height="30" viewBox="0 0 146 30" fill="none" xmlns="http://www.w3.org/2000/svg">
<path d="M13.7982 29.962C15.4026 29.962 16.7033 28.6614 16.7033 27.0569C16.7033 25.4525 15.4026 24.1519 13.7982 24.1519C12.1937 24.1519 10.8931 25.4525 10.8931 27.0569C10.8931 28.6614 12.1937 29.962 13.7982 29.962Z" fill="white"/>
<path d="M24.8033 29.9999C26.4077 29.9999 27.7084 28.6992 27.7084 27.0948C27.7084 25.4903 26.4077 24.1897 24.8033 24.1897C23.1988 24.1897 21.8982 25.4903 21.8982 27.0948C21.8982 28.6992 23.1988 29.9999 24.8033 29.9999Z" fill="white"/>
<path d="M8.83638 7.04525L6.4049 0H1.58506C0.709472 0 0 0.70947 0 1.58505C0 2.46064 0.709472 3.17011 1.58506 3.17011H4.14588L6.47591 9.92117H4.42548C3.72489 9.92117 3.15744 10.4893 3.15744 11.1892C3.15744 11.8892 3.72489 12.4573 4.42548 12.4573H4.49459H7.3515H11.7859C12.4858 12.4573 13.0539 13.0253 13.0539 13.7253C13.0539 14.4253 12.4858 14.9933 11.7859 14.9933H8.22645H6.08852C5.38856 14.9933 4.82048 15.5614 4.82048 16.2614C4.82048 16.9487 5.36891 17.5053 6.05112 17.5256H11.7852C12.4852 17.5256 13.0533 18.0937 13.0533 18.7937C13.0533 19.4943 12.4852 20.0617 11.7852 20.0617H9.97572L10.947 22.8755H25.4687C26.8915 22.8755 28.2248 21.8338 28.5685 20.4535L31.9098 7.04588L8.83638 7.04525Z" fill="white"/>
<path d="M39.7837 29.5669V0H46.0355V13.0366H46.4253L57.0664 0H64.5599L53.5868 13.2387L64.6899 29.5669H57.2108L49.1109 17.411L46.0355 21.1646V29.5669H39.7837Z" fill="white"/>
<path d="M74.0243 29.9856C72.6093 29.9856 71.3484 29.7401 70.2414 29.2493C69.1345 28.7488 68.2586 28.0125 67.6137 27.0404C66.9784 26.0587 66.6607 24.8364 66.6607 23.3734C66.6607 22.1415 66.8869 21.1068 67.3393 20.2695C67.7917 19.4321 68.4078 18.7584 69.1874 18.2483C69.9671 17.7382 70.8527 17.3532 71.8441 17.0934C72.8452 16.8335 73.8944 16.6506 74.9917 16.5448C76.2815 16.41 77.3211 16.2849 78.1104 16.1694C78.8997 16.0443 79.4724 15.8614 79.8285 15.6208C80.1847 15.3802 80.3628 15.0241 80.3628 14.5525V14.4658C80.3628 13.5515 80.074 12.8441 79.4964 12.3436C78.9285 11.8431 78.12 11.5929 77.0708 11.5929C75.9639 11.5929 75.0831 11.8383 74.4286 12.3292C73.774 12.8104 73.3409 13.4167 73.1291 14.1482L67.4404 13.6862C67.7292 12.3388 68.2971 11.1742 69.1441 10.1925C69.9912 9.20115 71.0837 8.44081 72.4216 7.91145C73.7692 7.37247 75.3286 7.10298 77.0997 7.10298C78.3318 7.10298 79.5109 7.24735 80.6371 7.53609C81.7729 7.82483 82.7788 8.27238 83.6547 8.87873C84.5403 9.48508 85.2381 10.2647 85.7483 11.2175C86.2584 12.1607 86.5135 13.2916 86.5135 14.6102V29.5669H80.6804V26.4918H80.5071C80.151 27.1848 79.6745 27.796 79.0777 28.3253C78.4809 28.845 77.7638 29.2541 76.9264 29.5525C76.089 29.8412 75.1216 29.9856 74.0243 29.9856ZM75.7858 25.7411C76.6906 25.7411 77.4895 25.563 78.1826 25.2069C78.8756 24.8412 79.4194 24.3503 79.8141 23.7344C80.2087 23.1184 80.4061 22.4206 80.4061 21.641V19.2878C80.2136 19.4129 79.9489 19.5284 79.612 19.6343C79.2847 19.7305 78.9141 19.8219 78.5002 19.9086C78.0863 19.9856 77.6724 20.0577 77.2585 20.1251C76.8446 20.1829 76.4692 20.2358 76.1323 20.2839C75.4104 20.3898 74.7799 20.5582 74.2409 20.7892C73.7018 21.0202 73.2831 21.333 72.9847 21.7276C72.6863 22.1126 72.5372 22.5938 72.5372 23.1713C72.5372 24.0087 72.8404 24.6487 73.4468 25.0914C74.0628 25.5245 74.8425 25.7411 75.7858 25.7411Z" fill="white"/>
<path d="M91.2854 29.5669V7.39172H97.2484V11.2608H97.4794C97.8837 9.8845 98.5623 8.84504 99.5153 8.14245C100.468 7.43022 101.566 7.07411 102.807 7.07411C103.115 7.07411 103.447 7.09336 103.803 7.13186C104.16 7.17036 104.472 7.22329 104.742 7.29066V12.7478C104.453 12.6612 104.054 12.5842 103.544 12.5168C103.033 12.4495 102.567 12.4158 102.143 12.4158C101.238 12.4158 100.43 12.6131 99.7174 13.0077C99.0147 13.3927 98.4564 13.9317 98.0425 14.6246C97.6383 15.3176 97.4361 16.1165 97.4361 17.0212V29.5669H91.2854Z" fill="white"/>
<path d="M120.83 7.39172V12.0115H107.474V7.39172H120.83ZM110.506 2.07892H116.657V22.7526C116.657 23.3205 116.744 23.7632 116.917 24.0808C117.09 24.3888 117.331 24.6054 117.639 24.7305C117.957 24.8556 118.322 24.9182 118.736 24.9182C119.025 24.9182 119.314 24.8941 119.603 24.846C119.891 24.7883 120.113 24.7449 120.267 24.7161L121.234 29.2926C120.926 29.3888 120.493 29.4995 119.935 29.6246C119.376 29.7594 118.698 29.8412 117.899 29.8701C116.417 29.9278 115.117 29.7305 114.001 29.2782C112.894 28.8258 112.032 28.1232 111.416 27.1704C110.8 26.2175 110.497 25.0144 110.506 23.5611V2.07892Z" fill="white"/>
<path d="M134.619 30C132.376 30 130.436 29.5236 128.8 28.5707C127.173 27.6083 125.917 26.2705 125.031 24.5573C124.146 22.8345 123.703 20.8373 123.703 18.5659C123.703 16.2753 124.146 14.2733 125.031 12.5602C125.917 10.8373 127.173 9.49952 128.8 8.54668C130.436 7.58422 132.376 7.10298 134.619 7.10298C136.861 7.10298 138.796 7.58422 140.423 8.54668C142.059 9.49952 143.32 10.8373 144.206 12.5602C145.091 14.2733 145.534 16.2753 145.534 18.5659C145.534 20.8373 145.091 22.8345 144.206 24.5573C143.32 26.2705 142.059 27.6083 140.423 28.5707C138.796 29.5236 136.861 30 134.619 30ZM134.647 25.2358C135.668 25.2358 136.52 24.9471 137.203 24.3696C137.886 23.7825 138.401 22.9836 138.748 21.9731C139.104 20.9625 139.282 19.8123 139.282 18.5226C139.282 17.2329 139.104 16.0828 138.748 15.0722C138.401 14.0616 137.886 13.2628 137.203 12.6756C136.52 12.0885 135.668 11.795 134.647 11.795C133.618 11.795 132.751 12.0885 132.049 12.6756C131.355 13.2628 130.831 14.0616 130.475 15.0722C130.128 16.0828 129.955 17.2329 129.955 18.5226C129.955 19.8123 130.128 20.9625 130.475 21.9731C130.831 22.9836 131.355 23.7825 132.049 24.3696C132.751 24.9471 133.618 25.2358 134.647 25.2358Z" fill="white"/>
</svg>
