<svg width="33" height="32" viewBox="0 0 33 32" fill="none" xmlns="http://www.w3.org/2000/svg">
<path d="M11.1025 1H31.5566V22.6667H11.1025V1Z" stroke="#BD844C" stroke-width="2" stroke-linecap="round" stroke-linejoin="round"/>
<path d="M11.1019 9.33319H5.64747L1.55665 14.3332V22.6665H11.1019V9.33319Z" stroke="#BD844C" stroke-width="2" stroke-linecap="round" stroke-linejoin="round"/>
<path d="M25.4208 31.0001C23.5381 31.0001 22.0118 29.1347 22.0118 26.8335C22.0118 24.5323 23.5381 22.6668 25.4208 22.6668C27.3036 22.6668 28.8299 24.5323 28.8299 26.8335C28.8299 29.1347 27.3036 31.0001 25.4208 31.0001Z" stroke="#BD844C" stroke-width="2" stroke-linecap="round" stroke-linejoin="round"/>
<path d="M7.69288 31.0001C5.81013 31.0001 4.28386 29.1347 4.28386 26.8335C4.28386 24.5323 5.81013 22.6668 7.69288 22.6668C9.57563 22.6668 11.1019 24.5323 11.1019 26.8335C11.1019 29.1347 9.57563 31.0001 7.69288 31.0001Z" stroke="#BD844C" stroke-width="2" stroke-linecap="round" stroke-linejoin="round"/>
</svg>
