<svg width="30" height="30" viewBox="0 0 30 30" fill="none" xmlns="http://www.w3.org/2000/svg">
<mask id="mask0_1_218" style="mask-type:luminance" maskUnits="userSpaceOnUse" x="0" y="0" width="31" height="30">
<path fill-rule="evenodd" clip-rule="evenodd" d="M0 0H30.0024V29.9998H0V0Z" fill="white"/>
</mask>
<g mask="url(#mask0_1_218)">
<path fill-rule="evenodd" clip-rule="evenodd" d="M13.4172 27.1116C14.3022 27.9755 15.7271 27.965 16.6061 27.0816L17.689 26.0016C18.5289 25.1632 19.6899 24.6847 20.8733 24.6847H22.4182C23.6691 24.6847 24.6861 23.6678 24.6861 22.4184V20.8749C24.6861 19.6735 25.1511 18.5441 26 17.6936L27.0799 16.6122C27.5194 16.1712 27.7549 15.5997 27.7534 14.9938C27.7519 14.3893 27.5134 13.8209 27.0829 13.3919L26.0015 12.3089C25.1511 11.4525 24.6861 10.3246 24.6861 9.12312V7.58271C24.6861 6.33179 23.6691 5.31485 22.4182 5.31485H20.8763C19.6749 5.31485 18.5454 4.84837 17.695 4.00392L16.6121 2.91948C15.7106 2.02704 14.2722 2.03154 13.3917 2.91798L12.3133 3.99942C11.4524 4.84987 10.3229 5.31485 9.12599 5.31485H7.58258C6.33315 5.31635 5.31621 6.33329 5.31621 7.58271V9.12012C5.31621 10.3216 4.84974 11.451 4.00379 12.3029L2.93885 13.3694C2.92835 13.3814 2.91785 13.3904 2.90735 13.4009C2.0269 14.2873 2.0314 15.7257 2.91785 16.6062L4.00078 17.6891C4.84974 18.5411 5.31621 19.6705 5.31621 20.8719V22.4184C5.31621 23.6678 6.33165 24.6847 7.58258 24.6847H9.12299C10.3259 24.6862 11.4554 25.1527 12.3058 26.0001L13.3872 27.0786C13.3962 27.0891 13.4067 27.0996 13.4172 27.1116ZM14.9972 30.0003C13.8468 30.0003 12.6963 29.5653 11.8159 28.6924C11.8039 28.6804 11.7919 28.6684 11.7799 28.6549L10.715 27.5914C10.2905 27.1699 9.72352 26.936 9.12055 26.9345H7.58164C5.09029 26.9345 3.06541 24.9081 3.06541 22.4182V20.8718C3.06541 20.2688 2.82992 19.7034 2.40694 19.2774L1.32851 18.2005C-0.423392 16.4576 -0.444391 13.6197 1.27601 11.8498C1.28951 11.8363 1.30301 11.8228 1.31651 11.8093L2.40844 10.7144C2.82992 10.2899 3.06541 9.72145 3.06541 9.11999V7.58258C3.06541 5.09272 5.09029 3.06634 7.58014 3.06484H9.12505C9.72652 3.06484 10.2935 2.82935 10.724 2.40488L11.7964 1.32944C13.5498 -0.435956 16.4161 -0.444955 18.1845 1.31294L19.281 2.40938C19.7054 2.83085 20.2724 3.06484 20.8754 3.06484H22.4173C24.9086 3.06484 26.935 5.09122 26.935 7.58258V9.12299C26.935 9.72445 27.169 10.2929 27.5935 10.7204L28.6704 11.7988C29.5239 12.6463 29.9978 13.7787 30.0023 14.9861C30.0068 16.1936 29.5404 17.329 28.6899 18.1855L27.5905 19.2819C27.169 19.7064 26.935 20.2718 26.935 20.8748V22.4182C26.935 24.9081 24.9086 26.9345 22.4188 26.9345H20.8724C20.2784 26.9345 19.6979 27.1744 19.2765 27.5929L18.1995 28.6698C17.3191 29.5563 16.1581 30.0003 14.9972 30.0003Z" fill="#BD844C"/>
</g>
<path fill-rule="evenodd" clip-rule="evenodd" d="M11.1441 19.9811C10.8561 19.9811 10.5681 19.8716 10.3491 19.6511C9.90966 19.2116 9.90966 18.5006 10.3491 18.0612L18.0587 10.3501C18.4982 9.91064 19.2106 9.91064 19.6501 10.3501C20.0896 10.7896 20.0896 11.502 19.6501 11.9415L11.939 19.6511C11.7201 19.8716 11.4321 19.9811 11.1441 19.9811Z" fill="#BD844C"/>
<path fill-rule="evenodd" clip-rule="evenodd" d="M18.7535 20.2476C17.9241 20.2476 17.2461 19.5772 17.2461 18.7477C17.2461 17.9183 17.9106 17.2478 18.74 17.2478H18.7535C19.583 17.2478 20.2534 17.9183 20.2534 18.7477C20.2534 19.5772 19.583 20.2476 18.7535 20.2476Z" fill="#BD844C"/>
<path fill-rule="evenodd" clip-rule="evenodd" d="M11.2555 12.7481C10.426 12.7481 9.74805 12.0777 9.74805 11.2482C9.74805 10.4188 10.4125 9.74829 11.242 9.74829H11.2555C12.0849 9.74829 12.7554 10.4188 12.7554 11.2482C12.7554 12.0777 12.0849 12.7481 11.2555 12.7481Z" fill="#BD844C"/>
</svg>
