<svg width="33" height="27" viewBox="0 0 33 27" fill="none" xmlns="http://www.w3.org/2000/svg">
<path d="M10.7223 1H31.5557V19.0556H10.7223V1Z" stroke="#010F1C" stroke-width="2" stroke-linecap="round" stroke-linejoin="round"/>
<path d="M10.7224 7.94434H5.16686L1.00019 12.111V19.0554H10.7224V7.94434Z" stroke="#010F1C" stroke-width="2" stroke-linecap="round" stroke-linejoin="round"/>
<path d="M25.3056 26.0001C23.388 26.0001 21.8334 24.4455 21.8334 22.5279C21.8334 20.6102 23.388 19.0557 25.3056 19.0557C27.2233 19.0557 28.7778 20.6102 28.7778 22.5279C28.7778 24.4455 27.2233 26.0001 25.3056 26.0001Z" stroke="#010F1C" stroke-width="2" stroke-linecap="round" stroke-linejoin="round"/>
<path d="M7.25019 26.0001C5.33253 26.0001 3.77797 24.4455 3.77797 22.5279C3.77797 20.6102 5.33253 19.0557 7.25019 19.0557C9.16785 19.0557 10.7224 20.6102 10.7224 22.5279C10.7224 24.4455 9.16785 26.0001 7.25019 26.0001Z" stroke="#010F1C" stroke-width="2" stroke-linecap="round" stroke-linejoin="round"/>
</svg>
