<svg width="30" height="30" viewBox="0 0 30 30" fill="none" xmlns="http://www.w3.org/2000/svg">
<mask id="mask0_1_1295" style="mask-type:luminance" maskUnits="userSpaceOnUse" x="0" y="0" width="31" height="30">
<path fill-rule="evenodd" clip-rule="evenodd" d="M0 0H30.0024V29.9998H0V0Z" fill="white"/>
</mask>
<g mask="url(#mask0_1_1295)">
<path fill-rule="evenodd" clip-rule="evenodd" d="M13.4168 27.1118C14.3017 27.9757 15.7266 27.9652 16.6056 27.0818L17.6885 26.0018C18.5285 25.1634 19.6894 24.6849 20.8728 24.6849H22.4178C23.6687 24.6849 24.6856 23.668 24.6856 22.4185V20.8751C24.6856 19.6737 25.1506 18.5443 25.9995 17.6938L27.0795 16.6124C27.519 16.1714 27.7544 15.5999 27.7529 14.994C27.7514 14.3895 27.513 13.821 27.0825 13.3921L26.001 12.3091C25.1506 11.4527 24.6856 10.3247 24.6856 9.1233V7.58289C24.6856 6.33196 23.6687 5.31502 22.4178 5.31502H20.8758C19.6744 5.31502 18.545 4.84855 17.6945 4.0041L16.6116 2.91966C15.7101 2.02721 14.2717 2.03171 13.3913 2.91816L12.3128 3.9996C11.4519 4.85005 10.3225 5.31502 9.12553 5.31502H7.58212C6.33269 5.31652 5.31575 6.33346 5.31575 7.58289V9.1203C5.31575 10.3217 4.84927 11.4512 4.00332 12.3031L2.93839 13.3696C2.92789 13.3816 2.91739 13.3906 2.90689 13.4011C2.02644 14.2875 2.03094 15.7259 2.91739 16.6064L4.00032 17.6893C4.84927 18.5413 5.31575 19.6707 5.31575 20.8721V22.4185C5.31575 23.668 6.33119 24.6849 7.58212 24.6849H9.12253C10.3255 24.6864 11.4549 25.1529 12.3053 26.0003L13.3868 27.0788C13.3958 27.0893 13.4063 27.0998 13.4168 27.1118ZM14.9972 30.0003C13.8468 30.0003 12.6963 29.5654 11.8159 28.6924C11.8039 28.6804 11.7919 28.6684 11.7799 28.6549L10.715 27.5915C10.2905 27.17 9.72352 26.936 9.12055 26.9345H7.58164C5.09029 26.9345 3.06541 24.9081 3.06541 22.4183V20.8719C3.06541 20.2689 2.82992 19.7034 2.40694 19.2775L1.32851 18.2005C-0.423392 16.4576 -0.444391 13.6198 1.27601 11.8499C1.28951 11.8364 1.30301 11.8229 1.31651 11.8094L2.40844 10.7145C2.82992 10.29 3.06541 9.72151 3.06541 9.12005V7.58264C3.06541 5.09278 5.09029 3.0664 7.58014 3.0649H9.12505C9.72652 3.0649 10.2935 2.82942 10.724 2.40494L11.7964 1.3295C13.5498 -0.435895 16.4161 -0.444894 18.1845 1.313L19.281 2.40944C19.7054 2.83092 20.2724 3.0649 20.8754 3.0649H22.4173C24.9086 3.0649 26.935 5.09128 26.935 7.58264V9.12305C26.935 9.72451 27.169 10.293 27.5935 10.7205L28.6704 11.7989C29.5239 12.6463 29.9978 13.7788 30.0023 14.9862C30.0068 16.1936 29.5404 17.3291 28.6899 18.1855L27.5905 19.282C27.169 19.7064 26.935 20.2719 26.935 20.8749V22.4183C26.935 24.9081 24.9086 26.9345 22.4188 26.9345H20.8724C20.2784 26.9345 19.6979 27.1745 19.2765 27.593L18.1995 28.6699C17.3191 29.5564 16.1581 30.0003 14.9972 30.0003Z" fill="#010F1C"/>
</g>
<path fill-rule="evenodd" clip-rule="evenodd" d="M11.1451 19.9811C10.8571 19.9811 10.5691 19.8716 10.3501 19.6511C9.91064 19.2116 9.91064 18.5006 10.3501 18.0612L18.0597 10.3501C18.4991 9.91064 19.2116 9.91064 19.6511 10.3501C20.0905 10.7896 20.0905 11.502 19.6511 11.9415L11.94 19.6511C11.721 19.8716 11.4331 19.9811 11.1451 19.9811Z" fill="#010F1C"/>
<path fill-rule="evenodd" clip-rule="evenodd" d="M18.7545 20.2474C17.925 20.2474 17.2471 19.5769 17.2471 18.7475C17.2471 17.918 17.9115 17.2476 18.741 17.2476H18.7545C19.5839 17.2476 20.2544 17.918 20.2544 18.7475C20.2544 19.5769 19.5839 20.2474 18.7545 20.2474Z" fill="#010F1C"/>
<path fill-rule="evenodd" clip-rule="evenodd" d="M11.255 12.7479C10.4255 12.7479 9.74756 12.0774 9.74756 11.248C9.74756 10.4185 10.412 9.74805 11.2415 9.74805H11.255C12.0844 9.74805 12.7549 10.4185 12.7549 11.248C12.7549 12.0774 12.0844 12.7479 11.255 12.7479Z" fill="#010F1C"/>
</svg>
