<svg width="216" height="179" viewBox="0 0 216 179" fill="none" xmlns="http://www.w3.org/2000/svg">
<path d="M88.7227 0H11.6133C5.53927 0 0.597656 4.94161 0.597656 11.0156V82.6172C0.597656 88.6912 5.53927 93.6328 11.6133 93.6328H57.2538C52.0919 118.965 29.4625 137.695 3.35156 137.695C1.83086 137.695 0.597656 138.928 0.597656 140.449V176.25C0.597656 177.771 1.83086 179.004 3.35156 179.004C56.4992 179.004 99.7383 135.765 99.7383 82.6172V11.0156C99.7383 4.94161 94.7967 0 88.7227 0ZM94.2305 82.6172C94.2305 131.807 54.9482 171.995 6.10547 173.455V143.141C19.7759 142.519 32.8448 137.284 43.1692 128.241C54.0703 118.693 61.2018 105.563 63.2512 91.27C63.3647 90.479 63.1295 89.6782 62.6063 89.0751C62.083 88.4714 61.3235 88.125 60.5254 88.125H11.6133C8.57627 88.125 6.10547 85.6542 6.10547 82.6172V11.0156C6.10547 7.97862 8.57627 5.50781 11.6133 5.50781H88.7227C91.7597 5.50781 94.2305 7.97862 94.2305 11.0156V82.6172ZM204.387 0H127.277C121.203 0 116.262 4.94161 116.262 11.0156V82.6172C116.262 88.6912 121.203 93.6328 127.277 93.6328H172.92C167.758 118.965 145.128 137.695 119.016 137.695C117.494 137.695 116.262 138.928 116.262 140.449V176.25C116.262 177.771 117.494 179.004 119.016 179.004C172.163 179.004 215.402 135.765 215.402 82.6172V11.0156C215.402 4.94161 210.461 0 204.387 0ZM209.895 82.6172C209.895 131.807 170.612 171.995 121.77 173.455V143.141C135.44 142.52 148.509 137.284 158.834 128.241C169.736 118.693 176.868 105.563 178.917 91.27C179.031 90.479 178.795 89.6782 178.273 89.0751C177.749 88.4714 176.99 88.125 176.192 88.125H127.277C124.24 88.125 121.77 85.6542 121.77 82.6172V11.0156C121.77 7.97862 124.24 5.50781 127.277 5.50781H204.387C207.424 5.50781 209.895 7.97862 209.895 11.0156V82.6172Z" fill="white" fill-opacity="0.1"/>
</svg>
